# xmcd
#
# Track frame offsets: 
#        150
#        10462
#        33644
#        50775
#        69874
#        91647
#        106729
#        124086
#        160096
#        183791
#        207209
#        231613
#
# Disc length: 3421 seconds
#
# Revision: 0
# Processed by: cddbd v1.5.2PL0 Copyright (c) Steve Scherf et al.
# Submitted via: ExactAudioCopyFreeDBPlugin 1.0
#
DISCID=990d5b0c
DTITLE=陰陽座 - 風神界逅
DYEAR=2014
DGENRE=Heavy Metal
TTITLE0=風神
TTITLE1=神風
TTITLE2=然れど偽りの送り火
TTITLE3=一目連
TTITLE4=蛇蠱
TTITLE5=飆
TTITLE6=無風忍法帖
TTITLE7=八百比丘尼
TTITLE8=眼指
TTITLE9=雲は龍に舞い、風は鳳に歌う
TTITLE10=故に其の疾きこと風の如く
TTITLE11=春爛漫に式の舞う也
EXTD=
EXTT0=
EXTT1=
EXTT2=
EXTT3=
EXTT4=
EXTT5=
EXTT6=
EXTT7=
EXTT8=
EXTT9=
EXTT10=
EXTT11=
PLAYORDER=
